HIERARCHY
ROOT Reference
{
  OFFSET 0 0 0
  CHANNELS 6 Xposition Yposition Zposition Zrotation Xrotation Yrotation
  JOINT Hips
  {
    OFFSET 251.394 724.17 483.536
    CHANNELS 3 Zrotation Xrotation Yrotation
    JOINT RightUpLeg
    {
      OFFSET -0.450515 -23.4426 -1.37224
      CHANNELS 3 Zrotation Xrotation Yrotation
      JOINT RightLeg
      {
        OFFSET 112.821 0.0872427 -0.321027
        CHANNELS 3 Zrotation Xrotation Yrotation
        JOINT RightFoot
        {
          OFFSET 105.718 0.000193788 0.0213165
          CHANNELS 3 Zrotation Xrotation Yrotation
          JOINT RightToeBase
          {
            OFFSET 37.638 -0.000116272 0.00224792
            CHANNELS 3 Zrotation Xrotation Yrotation
            JOINT RightToeEnd
            {
              OFFSET 21.2112 0.114605 -0.000138184
              CHANNELS 3 Zrotation Xrotation Yrotation
              End Site
              {
                OFFSET 0 0 0
              }
            }
          }
        }
      }
    }
    JOINT LeftUpLeg
    {
      OFFSET -0.449508 23.4315 -1.37054
      CHANNELS 3 Zrotation Xrotation Yrotation
      JOINT LeftLeg
      {
        OFFSET 112.821 -0.0485242 -0.372458
        CHANNELS 3 Zrotation Xrotation Yrotation
        JOINT LeftFoot
        {
          OFFSET 105.716 0.00496094 -0.0229443
          CHANNELS 3 Zrotation Xrotation Yrotation
          JOINT LeftToeBase
          {
            OFFSET 37.639 0 0.00158905
            CHANNELS 3 Zrotation Xrotation Yrotation
            JOINT LeftToeEnd
            {
              OFFSET 21.2113 -0.125031 -0.00017438
              CHANNELS 3 Zrotation Xrotation Yrotation
              End Site
              {
                OFFSET 0 0 0
              }
            }
          }
        }
      }
    }
    JOINT Spine
    {
      OFFSET -5.01225 0.000463591 -9.60395
      CHANNELS 3 Zrotation Xrotation Yrotation
      JOINT Spine1
      {
        OFFSET 26.0222 -0.000271301 -0.000155029
        CHANNELS 3 Zrotation Xrotation Yrotation
        JOINT Spine2
        {
          OFFSET 27.173 -0.000155029 -0.000310058
          CHANNELS 3 Zrotation Xrotation Yrotation
          JOINT Spine3
          {
            OFFSET 36.3953 -0.000232544 7.75146e-005
            CHANNELS 3 Zrotation Xrotation Yrotation
            JOINT Neck
            {
              OFFSET 36.4331 0 -3.00261
              CHANNELS 3 Zrotation Xrotation Yrotation
              JOINT Head
              {
                OFFSET 23.0407 -0.000232544 -0.000310058
                CHANNELS 3 Zrotation Xrotation Yrotation
                End Site
                {
                  OFFSET 0 0 0
                }
              }
            }
            JOINT LeftShoulder
            {
              OFFSET 20.1317 6.74168 -12.6061
              CHANNELS 3 Zrotation Xrotation Yrotation
              JOINT LeftArm
              {
                OFFSET 34.2172 -5.81359e-005 7.75146e-005
                CHANNELS 3 Zrotation Xrotation Yrotation
                JOINT LeftForeArm
                {
                  OFFSET 65.4129 -0.0821605 0.0585235
                  CHANNELS 3 Zrotation Xrotation Yrotation
                  JOINT LeftHand
                  {
                    OFFSET 67.3883 0.0359667 0.0112396
                    CHANNELS 3 Zrotation Xrotation Yrotation
                    JOINT LeftHandThumb1
                    {
                      OFFSET 8.78386 2.85353 -6.05362
                      CHANNELS 3 Zrotation Xrotation Yrotation
                      JOINT LeftHandThumb2
                      {
                        OFFSET 8.25498 -0.000116272 -0.000174407
                        CHANNELS 3 Zrotation Xrotation Yrotation
                        JOINT LeftHandThumb3
                        {
                          OFFSET 7.24822 0.000310058 5.81358e-005
                          CHANNELS 3 Zrotation Xrotation Yrotation
                          JOINT LeftHandThumb4
                          {
                            OFFSET 7.0004 -3.87568e-005 -0.000310057
                            CHANNELS 3 Zrotation Xrotation Yrotation
                            End Site
                            {
                              OFFSET 0 0 0
                            }
                          }
                        }
                      }
                    }
                    JOINT LeftHandIndex1
                    {
                      OFFSET 24.0991 -1.01537 -5.40558
                      CHANNELS 3 Zrotation Xrotation Yrotation
                      JOINT LeftHandIndex2
                      {
                        OFFSET 7.26759 -0.000290679 -0.000465086
                        CHANNELS 3 Zrotation Xrotation Yrotation
                        JOINT LeftHandIndex3
                        {
                          OFFSET 7.13628 -1.93787e-005 0.000232543
                          CHANNELS 3 Zrotation Xrotation Yrotation
                          JOINT LeftHandIndex4
                          {
                            OFFSET 5.46699 9.68932e-005 -0.000387571
                            CHANNELS 3 Zrotation Xrotation Yrotation
                            End Site
                            {
                              OFFSET 0 0 0
                            }
                          }
                        }
                      }
                    }
                    JOINT LeftHandMiddle1
                    {
                      OFFSET 24.4604 -2.52837 0.918567
                      CHANNELS 3 Zrotation Xrotation Yrotation
                      JOINT LeftHandMiddle2
                      {
                        OFFSET 7.41627 -5.81359e-005 0.000116271
                        CHANNELS 3 Zrotation Xrotation Yrotation
                        JOINT LeftHandMiddle3
                        {
                          OFFSET 8.76829 3.87573e-005 -7.75142e-005
                          CHANNELS 3 Zrotation Xrotation Yrotation
                          JOINT LeftHandMiddle4
                          {
                            OFFSET 6.07588 -0.00013565 -5.81356e-005
                            CHANNELS 3 Zrotation Xrotation Yrotation
                            End Site
                            {
                              OFFSET 0 0 0
                            }
                          }
                        }
                      }
                    }
                    JOINT LeftHandRing1
                    {
                      OFFSET 22.465 -1.97467 6.3466
                      CHANNELS 3 Zrotation Xrotation Yrotation
                      JOINT LeftHandRing2
                      {
                        OFFSET 7.36666 -0.000232544 0.000387571
                        CHANNELS 3 Zrotation Xrotation Yrotation
                        JOINT LeftHandRing3
                        {
                          OFFSET 8.07624 -0.000465087 -0.000203475
                          CHANNELS 3 Zrotation Xrotation Yrotation
                          JOINT LeftHandRing4
                          {
                            OFFSET 6.04433 0.00013565 3.87571e-005
                            CHANNELS 3 Zrotation Xrotation Yrotation
                            End Site
                            {
                              OFFSET 0 0 0
                            }
                          }
                        }
                      }
                    }
                    JOINT LeftHandPinky1
                    {
                      OFFSET 19.5278 0.352933 10.4295
                      CHANNELS 3 Zrotation Xrotation Yrotation
                      JOINT LeftHandPinky2
                      {
                        OFFSET 6.16525 5.8136e-005 -0.000251921
                        CHANNELS 3 Zrotation Xrotation Yrotation
                        JOINT LeftHandPinky3
                        {
                          OFFSET 6.14448 -0.000329434 -0.00510625
                          CHANNELS 3 Zrotation Xrotation Yrotation
                          JOINT LeftHandPinky4
                          {
                            OFFSET 4.98555 0.000116272 0.000116271
                            CHANNELS 3 Zrotation Xrotation Yrotation
                            End Site
                            {
                              OFFSET 0 0 0
                            }
                          }
                        }
                      }
                    }
                  }
                }
              }
            }
            JOINT RightShoulder
            {
              OFFSET 20.1309 -6.74152 -12.6063
              CHANNELS 3 Zrotation Xrotation Yrotation
              JOINT RightArm
              {
                OFFSET 34.2171 7.75146e-005 7.75146e-005
                CHANNELS 3 Zrotation Xrotation Yrotation
                JOINT RightForeArm
                {
                  OFFSET 65.4492 0.242543 -0.176501
                  CHANNELS 3 Zrotation Xrotation Yrotation
                  JOINT RightHand
                  {
                    OFFSET 67.3888 -0.0867388 0.0597442
                    CHANNELS 3 Zrotation Xrotation Yrotation
                    JOINT RightHandThumb1
                    {
                      OFFSET 8.78307 -2.85357 -6.05302
                      CHANNELS 3 Zrotation Xrotation Yrotation
                      JOINT RightHandThumb2
                      {
                        OFFSET 8.25493 -7.75145e-005 0
                        CHANNELS 3 Zrotation Xrotation Yrotation
                        JOINT RightHandThumb3
                        {
                          OFFSET 7.24797 -0.000174408 0.000155029
                          CHANNELS 3 Zrotation Xrotation Yrotation
                          JOINT RightHandThumb4
                          {
                            OFFSET 7.00062 0 0
                            CHANNELS 3 Zrotation Xrotation Yrotation
                            End Site
                            {
                              OFFSET 0 0 0
                            }
                          }
                        }
                      }
                    }
                    JOINT RightHandIndex1
                    {
                      OFFSET 24.0991 1.01525 -5.40578
                      CHANNELS 3 Zrotation Xrotation Yrotation
                      JOINT RightHandIndex2
                      {
                        OFFSET 7.26773 7.75144e-005 0.000232543
                        CHANNELS 3 Zrotation Xrotation Yrotation
                        JOINT RightHandIndex3
                        {
                          OFFSET 7.13572 -0.000310058 3.87571e-005
                          CHANNELS 3 Zrotation Xrotation Yrotation
                          JOINT RightHandIndex4
                          {
                            OFFSET 5.46717 0 3.87572e-005
                            CHANNELS 3 Zrotation Xrotation Yrotation
                            End Site
                            {
                              OFFSET 0 0 0
                            }
                          }
                        }
                      }
                    }
                    JOINT RightHandMiddle1
                    {
                      OFFSET 24.4603 2.52899 0.918547
                      CHANNELS 3 Zrotation Xrotation Yrotation
                      JOINT RightHandMiddle2
                      {
                        OFFSET 7.41641 -0.000116272 -0.000116272
                        CHANNELS 3 Zrotation Xrotation Yrotation
                        JOINT RightHandMiddle3
                        {
                          OFFSET 8.76765 -3.87577e-005 0.000232543
                          CHANNELS 3 Zrotation Xrotation Yrotation
                          JOINT RightHandMiddle4
                          {
                            OFFSET 6.07609 -0.000193787 -0.000116271
                            CHANNELS 3 Zrotation Xrotation Yrotation
                            End Site
                            {
                              OFFSET 0 0 0
                            }
                          }
                        }
                      }
                    }
                    JOINT RightHandRing1
                    {
                      OFFSET 22.465 1.97571 6.34696
                      CHANNELS 3 Zrotation Xrotation Yrotation
                      JOINT RightHandRing2
                      {
                        OFFSET 7.36684 0.000193786 0.000155029
                        CHANNELS 3 Zrotation Xrotation Yrotation
                        JOINT RightHandRing3
                        {
                          OFFSET 8.07614 -0.000271301 0
                          CHANNELS 3 Zrotation Xrotation Yrotation
                          JOINT RightHandRing4
                          {
                            OFFSET 6.04468 0.000232543 0
                            CHANNELS 3 Zrotation Xrotation Yrotation
                            End Site
                            {
                              OFFSET 0 0 0
                            }
                          }
                        }
                      }
                    }
                    JOINT RightHandPinky1
                    {
                      OFFSET 19.5277 -0.352346 10.4296
                      CHANNELS 3 Zrotation Xrotation Yrotation
                      JOINT RightHandPinky2
                      {
                        OFFSET 6.16508 0 0.000232543
                        CHANNELS 3 Zrotation Xrotation Yrotation
                        JOINT RightHandPinky3
                        {
                          OFFSET 6.14396 -0.000155048 -0.0048834
                          CHANNELS 3 Zrotation Xrotation Yrotation
                          JOINT RightHandPinky4
                          {
                            OFFSET 4.98577 -7.75146e-005 -7.75143e-005
                            CHANNELS 3 Zrotation Xrotation Yrotation
                            End Site
                            {
                              OFFSET 0 0 0
                            }
                          }
                        }
                      }
                    }
                  }
                }
              }
            }
          }
        }
      }
    }
  }
}
MOTION
Frames:	5
Frame Time:	0.0333333
0 0 0 -90 -7.01671e-015 -180 6.64403 5.15306 -123.159 -176.457 2.73115 -105.807 -0.115486 -0.182781 -33.1027 -5.17832 9.35155 50.412 -0.569885 0.114274 56.7849 0.000210745 -0.000159843 -86.4974 -157.739 -5.17128 -100.176 0.13923 0.250253 -41.7856 4.32408 -8.85928 53.7999 0.583665 -0.112222 57.7977 3.03523e-007 -8.66638e-005 -86.4975 -9.15528e-005 -4.28413e-015 127.63 -0.133413 -0.247875 -6.24395 -8.64553 -4.20544 -12.78 0.345051 -1.06369 2.79965 7.73895 -7.12473 56.4707 -18.018 -7.56542 56.2947 65.283 20.7631 -7.9972 52.9711 36.7324 64.1694 26.0197 6.45807 140.083 -14.4271 -12.8543 24.5241 -160.529 -4.06394 163.509 0.000442631 -0.000119976 10.446 0.000327145 -0.00015125 5.08673 0.000236067 -0.00131451 -0.00012182 81.7434 87.5984 -75.4088 -0.00029247 -0.000416301 7.80177 0.000966257 -0.000698933 1.81523 -0.000612402 -0.00056139 -1.92971 -7.19029 86.9804 28.908 8.19809e-005 -0.000357362 7.10423 0.000846049 -0.000648449 7.10926 -0.000482474 -0.000303146 -1.92919 -46.3398 88.6839 73.752 0.000107835 -0.0010243 10.9012 0.00138026 -0.000381214 10.8982 -0.000658237 -0.00067704 -1.92852 -44.8657 87.4827 72.3085 0.000991049 -0.00139155 10.8956 3.72203e-005 -0.000110381 10.9031 0.00091324 -3.29816e-005 -1.92689 -81.2205 -20.1065 -14.2527 -50.6413 -27.5646 47.3796 -43.795 -21.4875 147.269 -4.31824 -11.0977 16.763 160.53 4.06445 163.514 -8.83255e-005 3.13143e-005 10.4461 0.000148771 7.70729e-005 5.08666 0.000411988 0.00120544 180 -81.7287 -87.5878 -75.3939 -0.000192674 -0.000217554 7.80432 0.000101887 8.64525e-005 1.81769 -1.57725e-005 -1.52501e-005 178.071 7.07428 -86.9834 28.7936 2.41483e-005 0.00010794 7.1093 -5.41473e-005 0.000156361 7.10423 -5.79533e-005 9.15008e-005 178.071 46.384 -88.6843 73.7964 1.31831e-005 -0.000138423 10.9012 2.45568e-005 0.00035229 10.8982 -7.62941e-005 -7.01273e-015 178.071 44.7864 -87.486 72.2265 -1.48028e-005 0.000257263 10.9012 0.00669284 0.00146312 10.9194 -2.89311e-005 4.57489e-005 178.014 
0 0 0 -90 -7.01671e-015 -180 6.32421 2.62889 -123.877 -178.549 3.4382 -103.324 -0.121429 -0.153737 -39.3018 -5.62761 8.30529 53.296 -0.572683 0.0991834 58.2964 0.000210125 -0.000183593 -86.4974 -149.743 -8.6762 -97.8985 0.257109 0.263122 -46.5284 5.04984 -4.3201 56.5699 0.588657 -0.0823264 60.7294 3.14018e-006 -2.01661e-005 -86.4975 -0.000129897 -6.58215e-005 128.042 -1.10062 -0.0855979 -5.66879 -9.29704 -4.32244 -12.609 0.0449862 -0.141381 3.35364 7.4393 -6.96687 55.966 -18.0484 -8.35202 55.9963 64.2682 20.934 -6.72918 53.5378 37.5087 63.1544 25.1163 7.29974 138.755 -12.4454 -16.5409 25.319 -160.529 -4.06383 163.746 0.000442584 -0.000170419 10.446 0.000327106 -0.00015369 5.08672 0.000236067 -0.00140023 -0.00012182 91.9036 86.912 -85.0559 -0.000293365 -0.000420836 8.06609 0.000970967 -0.000694055 2.07829 -0.000602759 -0.000556933 -1.70955 -6.54344 87.4071 28.7893 9.05745e-005 -0.000359991 7.36855 0.000846683 -0.000641748 7.37606 -0.000477241 -0.000301441 -1.70903 -48.8219 88.4835 76.4995 0.000120213 -0.00102508 11.1674 0.00138932 -0.000368539 11.1613 -0.000654259 -0.000675093 -1.70836 -47.8697 87.0358 75.5723 0.000997146 -0.00138935 11.1599 5.23355e-005 -0.000116834 11.1587 0.000649491 -3.09149e-005 -1.70658 -82.0603 -20.4318 -13.9347 -51.1374 -29.3907 47.6084 -44.0434 -21.6083 145.703 -3.46933 -8.77099 18.8663 160.53 4.06442 163.753 -8.72084e-005 1.23242e-005 10.4461 0.000148638 6.29951e-005 5.08665 0.000411988 0.00109863 180 -91.9047 -86.912 -85.057 -0.000197832 -0.000225351 8.06739 0.000111866 9.09543e-005 2.08449 -1.57139e-005 -1.5252e-005 178.291 6.54366 -87.4071 28.7896 3.07012e-005 0.000116115 7.37612 -5.35296e-005 0.000153726 7.36853 -5.83049e-005 9.1512e-005 178.291 48.8254 -88.4836 76.503 2.31128e-005 -0.000140305 11.1673 3.25762e-005 0.000358043 11.1613 -9.15529e-005 3.24467e-014 178.291 47.8699 -87.0358 75.5726 -3.38631e-005 0.000263363 11.1674 0.00893471 0.00192325 11.1915 -2.91024e-005 4.57545e-005 178.228 
0 0 0 -90 -7.01671e-015 -180 6.35955 0.2657 -124.241 -179.304 3.75253 -101.409 -0.1433 -0.155489 -43.6775 -5.50637 6.54079 55.1494 -0.575086 0.0840274 59.808 0.000209534 -0.000247415 -86.4974 -142.667 -11.6418 -95.7194 0.212135 0.19078 -50.108 5.68655 -1.64149 59.0816 0.591099 -0.0627117 62.63 3.14974e-006 -1.15418e-005 -86.4975 -2.38733e-005 -1.90102e-005 128.53 -2.22497 0.137877 -5.20302 -10.351 -4.40978 -12.7664 -0.307804 0.889745 3.61499 7.93545 -7.33409 56.3735 -18.2907 -9.06674 55.8294 63.4799 21.3117 -4.79703 53.2998 37.74 63.2811 24.7267 6.92753 136.533 -7.99117 -21.6421 27.0827 -160.529 -4.06372 163.983 0.000442438 -0.000269885 10.446 0.000327052 -0.000157829 5.08673 0.000236493 -0.00123008 -0.000122941 98.3482 86.2015 -90.9979 -0.000299997 -0.000429408 8.33043 0.000975159 -0.0006861 2.34136 -0.000593993 -0.000553631 -1.48939 -6.02696 87.8189 28.7859 0.000104463 -0.000356386 7.63288 0.000853701 -0.000638065 7.62048 -0.000469876 -0.000301435 -1.48886 -50.5581 88.2873 78.4916 0.000116701 -0.00104093 11.4187 0.00139596 -0.000352878 11.4243 -0.000647113 -0.000673051 -1.4882 -49.9615 86.5947 77.9165 0.00100471 -0.00138129 11.4242 6.62897e-005 -0.000124321 11.4143 0.000386788 -2.84316e-005 -1.48627 -83.8635 -20.8808 -13.539 -51.0951 -30.2109 47.5734 -43.3174 -21.8243 143.029 -5.09552 -5.32094 20.0966 160.529 4.0646 163.978 -8.74415e-005 -2.52588e-005 10.4461 0.000148602 3.80135e-005 5.08666 0.000411988 0.00131226 180 -98.3482 -86.2015 -90.998 -0.00020333 -0.000233248 8.33048 0.000119085 8.74029e-005 2.33577 -3.96451e-007 -1.52536e-005 178.511 6.02682 -87.8189 28.7857 4.16459e-005 0.000107733 7.62736 -4.8289e-005 0.000144331 7.63284 -7.43118e-005 7.62682e-005 178.511 50.5604 -88.2873 78.4938 2.74622e-005 -0.000149546 11.4186 3.76056e-005 0.000365393 11.4244 -9.15529e-005 3.24502e-014 178.511 49.9615 -86.5947 77.9165 -2.79809e-005 0.00026441 11.4186 0.00594787 0.00134671 11.428 -2.92737e-005 4.57595e-005 178.443 
0 0 0 -90 -7.01671e-015 -180 6.6345 -2.33197 -123.933 -178.784 3.54692 -99.4365 -0.263587 -0.253436 -46.7697 -4.59302 3.66991 56.1298 -0.575789 0.079377 60.268 0.000208982 -0.000111807 -86.4974 -138.743 -12.9055 -93.9252 0.227597 0.183949 -53.0288 6.27171 -1.09743 61.1782 0.591748 -0.0559879 63.2799 2.26405e-006 -1.18256e-005 -86.4975 -2.02015e-005 -2.8949e-005 129.227 -3.71291 0.633356 -5.14326 -11.129 -4.28563 -13.334 -0.611234 1.77287 3.63701 8.3369 -7.55213 56.9695 -18.8448 -9.35421 55.5152 62.2791 21.6437 -2.68162 52.3725 37.6826 64.1056 25.2486 6.46555 134.341 -5.73463 -28.7886 27.3717 -160.528 -4.06452 164.196 0.000451767 -7.16769e-005 10.446 0.000327185 -0.000166286 5.08672 0.000236493 -0.00123249 -0.000122941 102.72 85.4957 -94.8854 -0.000278536 -0.000436542 8.56862 0.000976777 -0.000686341 2.57086 -0.000585215 -0.000549609 -1.26922 -5.53174 88.2127 28.7825 0.000100053 -0.000367894 7.87107 0.000859839 -0.000634097 7.86488 -0.000463779 -0.000300027 -1.2687 -51.8328 88.0981 80.0109 0.000117224 -0.00106071 11.6699 0.00140863 -0.000358027 11.6625 -0.000639106 -0.000670815 -1.26804 -51.4548 86.1688 79.651 0.00100521 -0.00137674 11.6624 8.44639e-005 -0.000131202 11.6699 0.000125408 -2.68442e-005 -1.26596 -85.4872 -21.2057 -13.3778 -50.638 -31.4162 47.5835 -44.0017 -24.1156 140.313 -3.75304 -2.57967 21.2551 160.528 4.06479 164.203 -8.77446e-005 -9.78682e-005 10.4461 0.000148623 -1.37745e-005 5.08665 0.000411988 0.001297 180 -102.72 -85.4957 -94.8853 -0.000191521 -0.000223575 8.56866 0.000126647 8.67542e-005 2.58705 -6.75667e-007 -3.05101e-005 178.731 5.53227 -88.2128 28.7831 5.36581e-005 0.000103768 7.87859 -4.97046e-005 0.000143901 7.87104 -7.46049e-005 7.62752e-005 178.731 51.8339 -88.0981 80.012 2.48872e-005 -0.000153068 11.6698 4.70646e-005 0.000355718 11.6626 -9.15529e-005 7.01499e-015 178.731 51.4546 -86.1688 79.6508 -2.21385e-005 0.000268654 11.6699 0.00296459 0.000762636 11.6643 -1.41861e-005 4.57638e-005 178.657 
0 0 0 -90 -7.01671e-015 -180 6.93479 -5.00098 -122.78 -177.916 3.18862 -97.0805 -0.346442 -0.308216 -48.8405 -3.36947 0.490389 56.5155 -0.576093 0.076942 60.5137 0.00020806 -0.000121656 -86.4974 -137.907 -12.5256 -92.5191 0.3412 0.248396 -55.2773 6.91477 -2.24314 62.6989 0.591332 -0.0605013 62.8452 1.81267e-006 -1.53419e-005 -86.4975 -4.23269e-005 -9.66286e-006 129.291 -5.30548 1.1034 -5.39279 -11.5008 -3.98328 -13.3728 -0.733232 2.17221 3.28296 8.27929 -7.30256 57.7195 -19.0997 -9.52518 55.1857 61.5013 21.9348 -0.936553 51.9272 37.5333 63.8896 25.4779 6.03504 132.308 -2.94205 -35.1633 28.054 -160.527 -4.06533 164.41 0.000452161 -7.41959e-005 10.446 0.000327304 -0.000182656 5.08672 0.000236494 -0.00123491 -0.000122941 105.85 84.8189 -97.5565 -0.000255103 -0.00044379 8.80681 0.000975773 -0.000686386 2.80036 -0.000576396 -0.000545353 -1.04906 -5.06637 88.5827 28.7801 9.74949e-005 -0.000376927 8.10926 0.000865926 -0.000631413 8.10929 -0.000458909 -0.000300018 -1.04854 -52.7765 87.9193 81.1845 0.000142833 -0.00106488 11.8913 0.0014168 -0.000365055 11.9007 -0.00063312 -0.000668354 -1.04787 -52.5389 85.7662 80.9614 0.001002 -0.00137261 11.9006 7.81224e-005 -0.0001486 11.8913 -0.000139713 -2.65198e-005 -1.04565 -86.0917 -21.6208 -12.539 -50.4338 -33.1215 47.335 -45.5995 -27.1955 138.282 -1.49299 -2.55742 22.7674 160.527 4.06518 164.41 -9.56864e-005 4.66386e-005 10.446 0.00014865 -0.000115096 5.08665 0.000411988 0.001297 180 -105.85 -84.8189 -97.5567 -0.000180072 -0.000211667 8.80686 0.000128252 8.2067e-005 2.80844 -5.5843e-007 -3.05125e-005 178.952 5.06625 -88.5828 28.78 5.61295e-005 9.36211e-005 8.1 -5.01729e-005 0.000142959 8.10925 -7.4898e-005 7.62812e-005 178.952 52.778 -87.9194 81.186 2.0233e-005 -0.000146025 11.8912 5.61321e-005 0.000351745 11.9007 -9.15529e-005 -7.01553e-015 178.952 52.5389 -85.7662 80.9614 -2.49276e-005 0.000265383 11.8913 -1.87735e-005 0.00016536 11.9008 -1.4057e-005 6.10233e-005 178.872 
